<?xml version="1.0" encoding="UTF-8" standalone="no"?>
<!-- Created with Inkscape (http://www.inkscape.org/) -->

<svg
   width="93.520973mm"
   height="102.58444mm"
   viewBox="0 0 93.520973 102.58444"
   version="1.1"
   id="svg504"
   inkscape:version="1.2.2 (1:1.2.2+202212051552+b0a8486541)"
   sodipodi:docname="egs_logo.svg"
   xmlns:inkscape="http://www.inkscape.org/namespaces/inkscape"
   xmlns:sodipodi="http://sodipodi.sourceforge.net/DTD/sodipodi-0.dtd"
   xmlns="http://www.w3.org/2000/svg"
   xmlns:svg="http://www.w3.org/2000/svg">
  <sodipodi:namedview
     id="namedview506"
     pagecolor="#505050"
     bordercolor="#eeeeee"
     borderopacity="1"
     inkscape:showpageshadow="0"
     inkscape:pageopacity="0"
     inkscape:pagecheckerboard="0"
     inkscape:deskcolor="#505050"
     inkscape:document-units="mm"
     showgrid="false"
     inkscape:zoom="0.42142195"
     inkscape:cx="-417.63368"
     inkscape:cy="587.29736"
     inkscape:window-width="1600"
     inkscape:window-height="848"
     inkscape:window-x="0"
     inkscape:window-y="28"
     inkscape:window-maximized="1"
     inkscape:current-layer="layer1" />
  <defs
     id="defs501" />
  <g
     inkscape:label="Layer 1"
     inkscape:groupmode="layer"
     id="layer1"
     transform="translate(-134.68385,-31.582047)">
    <path
       id="path4"
       style="fill:#f01bac;fill-opacity:1;stroke-width:0.264583"
       class="st0"
       d="m 180.77036,31.582052 c -1.0261,-0.0016 -1.21233,0.36742 -1.21233,1.434021 0.0529,11.40353 0.0529,22.833657 0,34.237186 0,1.084791 0.37031,1.508126 1.34927,1.852084 7.99042,2.778122 15.92803,5.609169 23.91844,8.466666 4.60375,1.613957 9.23375,3.201564 13.81104,4.868437 1.05833,0.396875 1.29676,0.158645 1.24386,-0.899687 -0.0794,-1.534581 -0.13229,-3.095627 0,-4.630208 0.13229,-1.428749 -0.39678,-2.010937 -1.74615,-2.487187 -12.01208,-4.180412 -23.97136,-8.466567 -35.95698,-12.726355 -0.68791,-0.264582 -1.19062,-0.476354 -1.19062,-1.428853 0.0529,-6.217702 0.0529,-12.435422 0,-18.653125 0,-0.952495 0.34407,-1.111457 1.16427,-1.005623 3.3602,0.44979 6.72,0.926145 10.02729,1.693436 10.31874,2.35479 19.52626,6.931987 27.78125,13.520105 0.76729,0.608542 1.24385,1.270208 1.50844,2.196249 0.55562,2.03729 1.21718,4.021875 1.82572,6.032706 0.0529,-0.02646 0.13211,-0.02687 0.18501,-0.02687 0,-5.132911 -0.0266,-10.23938 0.0264,-15.345834 0,-0.952499 -0.29094,-1.507919 -1.08469,-2.037085 -4.36562,-2.936872 -8.8899,-5.53 -13.65239,-7.752498 -8.83709,-4.101037 -17.96522,-6.905522 -27.78125,-7.302397 -0.0761,-0.0033 -0.14812,-0.0051 -0.21653,-0.0052 z m -4.76818,0.592728 c -0.39471,-0.02914 -1.02465,0.163195 -2.02675,0.470773 -13.65249,4.153953 -26.14085,10.610007 -37.57084,19.129581 -1.21708,0.926041 -1.74629,1.878233 -1.71979,3.386357 0.0529,4.550828 0.3176,9.048961 0.7674,13.573332 0.89958,9.154573 2.48708,18.203549 4.36562,27.199373 0.18521,0.978957 0.52897,1.057919 1.37563,0.634587 4.68312,-2.35479 9.3925,-4.629901 14.07563,-6.958232 1.3229,-0.634999 2.64604,-1.296356 4.04833,-2.01073 -0.635,-0.39688 -1.00531,-0.05323 -1.34927,0.07906 -3.04271,1.137708 -6.08553,2.275728 -9.10177,3.49281 -1.11125,0.449792 -1.34917,0.211252 -1.50792,-0.952913 -0.68792,-5.212286 -1.5347,-10.424382 -2.22261,-15.663127 -0.74084,-5.450412 -1.45506,-10.900735 -1.48156,-16.430522 -0.0265,-0.793749 0.23812,-1.243748 0.92604,-1.667081 9.94832,-5.926661 20.0021,-11.641463 31.19396,-15.001669 0.58208,-0.185208 0.7674,-0.423541 0.7674,-1.005623 0,-1.931457 0.0794,-3.863022 0.10594,-5.794478 0.0165,-1.7694 0.0124,-2.432927 -0.64544,-2.481503 z m 51.47179,18.303793 v 1.561145 36.618436 c 0,0.714375 -0.0265,1.428752 -0.10594,2.116667 -0.79375,6.402911 -3.33354,12.117709 -6.93187,17.382919 -5.18583,7.56707 -12.06491,13.38802 -19.47323,18.62677 -0.23813,0.1588 -0.47615,0.42313 -0.82011,0.185 0.0265,-0.47625 0.42312,-0.66156 0.71417,-0.89969 2.59291,-2.11666 5.10667,-4.33886 7.48792,-6.69364 5.37104,-5.26521 10.23907,-10.95397 13.7051,-17.67438 1.79917,-3.466039 3.38688,-7.037919 3.38688,-11.112497 0,-1.322916 -0.44969,-1.772502 -1.61386,-2.169377 -14.18166,-4.762495 -28.33731,-9.604483 -42.4925,-14.393437 -0.42334,-0.132291 -0.8201,-0.423436 -1.48156,-0.238228 1.32292,1.190624 2.56646,2.249166 3.70417,3.386873 1.40229,1.375832 3.0426,2.249063 4.92114,2.884062 9.33978,3.095622 18.65335,6.323234 27.99313,9.471773 0.82017,0.291041 1.05813,0.582395 0.84646,1.508435 -1.05833,4.815412 -3.12167,9.154376 -5.92626,13.149586 -4.60374,6.56166 -10.45104,11.90605 -16.66875,16.85375 -0.2323,0.18685 -0.46299,0.37629 -0.69401,0.56534 -0.97935,0.80143 -1.97046,1.6073 -3.16932,2.29237 v -7.10086 -3.853 c 0.0265,-4.68312 0.0531,-9.33979 0.0796,-14.022912 0,-0.502709 -0.21147,-0.687814 -0.71417,-0.687814 -0.52917,0.02646 -0.52917,0.343752 -0.52917,0.714169 v 0.926041 15.158246 16.16852 2.96365 c 0.66146,0 1.00542,-0.29125 1.32292,-0.47646 4.44499,-2.40771 8.73136,-5.13313 12.80593,-8.14937 7.03792,-5.23875 13.51991,-11.03292 18.20303,-18.57355 3.9952,-6.4029 6.40313,-13.255422 6.165,-20.954789 -0.18525,-5.688535 -0.0269,-11.377089 -0.0269,-17.065625 V 52.013363 c 0,-0.555625 0.18531,-1.217291 -0.68781,-1.53479 z m -5.55263,25.362793 c -0.32573,0.0029 -0.44507,0.222519 -0.42685,0.804602 0.0265,1.349373 0,2.725313 0,4.074686 0,2.831038 10e-6,2.830732 2.64583,3.65094 0.0529,0.02646 0.0794,0.02677 0.1323,0.05323 0.55563,0.238125 0.79389,0.07896 0.76739,-0.556038 -0.0265,-1.058332 0,-2.089797 0,-3.148129 h -0.10594 c 0,-0.582083 0.0265,-1.164167 0,-1.719791 -0.15875,-2.328331 -0.185,-2.275418 -2.43396,-3.042709 -0.23977,-0.07441 -0.43072,-0.118113 -0.57877,-0.116788 z m -51.86195,22.394498 c 0,0.05292 -0.0262,0.132082 -0.0527,0.185002 1.11125,0.264584 2.16969,0.582187 3.28093,0.767395 0.74084,0.132292 1.00511,0.449688 1.00511,1.216979 -0.0265,7.09082 -0.0265,14.18177 0,21.2726 0,0.9525 -0.34375,0.95251 -0.97875,0.52917 -0.18521,-0.10583 -0.39718,-0.21145 -0.58239,-0.31729 -8.12271,-4.70958 -14.92219,-10.87459 -20.58428,-18.33583 -0.34395,-0.47625 -0.63531,-0.97886 -1.37614,-1.08469 -2.64583,-0.37042 -5.29167,-0.84688 -7.9375,-1.27021 -0.3175,-0.0529 -0.76708,-0.26437 -0.97875,0.0796 -0.18521,0.34396 0.13219,0.68771 0.29094,0.97875 1.24354,2.27542 2.64573,4.44542 4.25968,6.50917 9.20749,11.74749 21.48449,19.20834 34.97823,24.97625 0.71438,0.3175 0.89969,0.18542 0.89969,-0.58188 0.0265,-2.67228 0.15864,-5.37115 0.15864,-8.04343 0.0265,-6.58812 0.0265,-13.20282 0,-19.8174 -0.006,-0.43514 -0.0157,-0.8702 -0.0269,-1.30534 -0.0417,-1.62861 -0.11086,-3.25689 -0.13177,-4.885494 0,-0.582082 -0.1323,-0.873332 -0.79375,-0.873332 -0.95422,0.0066 -1.90866,0.01013 -2.86288,0.01137 -2.85577,0.0037 -5.71166,-0.01137 -8.56743,-0.01137 z" />
  </g>
</svg>
